<?xml version="1.0" standalone="no"?>
<!DOCTYPE svg PUBLIC "-//W3C//DTD SVG 20010904//EN"
 "http://www.w3.org/TR/2001/REC-SVG-20010904/DTD/svg10.dtd">
<svg version="1.0" xmlns="http://www.w3.org/2000/svg"
 width="450.000000pt" height="450.000000pt" viewBox="0 0 450.000000 450.000000"
 preserveAspectRatio="xMidYMid meet">
<metadata>
Created by potrace 1.11, written by Peter Selinger 2001-2013
</metadata>
<g transform="translate(0.000000,450.000000) scale(0.100000,-0.100000)"
fill="#000000" stroke="none">
<path d="M2218 4375 c-2 -1 -55 -5 -118 -9 -291 -16 -518 -85 -770 -234 -197
-115 -414 -313 -526 -477 -101 -148 -207 -395 -260 -610 -56 -224 -57 -231
-38 -360 32 -216 146 -382 391 -568 34 -26 68 -47 75 -47 8 0 18 -4 23 -9 37
-34 316 -134 406 -146 91 -11 121 -14 214 -20 85 -5 207 -19 266 -30 57 -11
188 -61 287 -109 56 -28 58 -31 53 -126 -3 -61 -18 -108 -52 -154 -32 -44 -62
-67 -134 -100 -101 -47 -169 -61 -385 -81 -68 -6 -293 -7 -338 0 -274 37 -390
181 -512 634 l-22 82 -32 -6 c-128 -27 -243 -81 -292 -139 -77 -89 -117 -208
-110 -327 7 -111 41 -192 139 -329 l54 -75 -45 -45 c-60 -61 -88 -106 -116
-192 -34 -103 -37 -150 -16 -258 25 -125 33 -149 69 -217 40 -74 96 -132 170
-178 64 -38 296 -119 318 -111 11 5 12 21 7 78 -9 93 -9 242 0 292 8 51 38
115 66 145 49 50 201 99 365 117 28 3 74 9 104 13 51 8 175 6 216 -2 11 -3 54
-8 95 -12 41 -4 88 -9 104 -10 163 -20 510 -26 621 -12 81 11 177 33 255 59
36 12 67 23 70 24 66 18 263 121 455 236 141 85 174 110 274 210 63 62 144
149 181 193 226 269 357 597 416 1040 6 44 5 273 -1 315 -4 25 -8 54 -10 65
-5 31 -35 145 -51 195 -25 75 -105 253 -126 280 -10 14 -44 66 -74 115 -242
395 -650 698 -1093 811 -183 47 -554 104 -573 89z"/>
</g>
</svg>
